<?xml version="1.0" encoding="UTF-8" standalone="no"?><!DOCTYPE svg PUBLIC "-//W3C//DTD SVG 1.1//EN" "http://www.w3.org/Graphics/SVG/1.1/DTD/svg11.dtd"><svg xmlns="http://www.w3.org/2000/svg" xmlns:xlink="http://www.w3.org/1999/xlink" version="1.1" width="1365" height="1365" viewBox="0 0 1024 1024">
<desc>Created with SVGMaker Editor 3.0.0</desc>
<defs>
</defs>
<path transform="translate(0,0)" style="fill: rgb(0,0,0)" stroke-linecap="round" d="M680.1698 142.998C680.1698 146.227 682.2246 149.7496 684.573 150.6303 687.215 151.8045 688.9763 156.2078 688.9763 162.3723 688.9763 172.0594 688.0956 172.9401 669.3084 181.4531 635.2566 196.7177 606.1952 205.2306 582.1241 206.9919L559.2272 208.4597 560.9885 197.0112C563.6304 182.3337 559.2272 170.2982 549.8336 166.1885 539.2658 161.1981 528.698 165.0142 524.5883 174.995 520.4786 185.2692 522.827 194.6628 532.5141 204.937 538.3851 211.1016 538.6787 213.1564 535.4496 215.7984 519.8915 228.7146 464.4105 235.1727 406.2876 231.063 357.5583 227.2468 317.6355 220.2016 248.6513 202.8822 217.8285 195.2499 183.7767 188.7918 170.2734 187.9112L146.2023 186.1499 145.3217 175.582 144.441 165.0142 127.7087 164.1336C111.857 163.253 110.6828 163.8401 109.215 170.2982 108.0408 174.4079 107.7473 180.5724 108.3344 184.095 108.9215 189.6725 107.1602 191.7273 96.0053 195.2499 44.3405 212.2758 10.5822 266.289 14.6919 324.999 15.8661 340.5572 21.15 362.2799 32.5985 398.3865 56.6696 472.9482 58.4309 495.8451 43.1663 537.8228 39.6437 547.5099 33.4791 564.5358 29.3694 575.9842 23.4984 592.1295 21.7371 602.4037 21.4436 622.9523 21.15 647.3169 22.0307 651.133 30.8372 669.0396 42.8727 693.4043 66.0632 715.4205 88.6665 723.9334 97.7666 727.4561 106.8666 730.098 109.215 730.098 117.1409 730.098 116.8473 724.227 108.6279 720.7044 78.0987 708.0818 68.7051 702.7978 58.4309 691.9365 36.1211 669.3331 26.7275 638.2169 31.7178 605.9263 33.4791 596.5328 39.6437 575.1036 46.1018 558.3712 68.9987 498.487 68.4116 479.1128 42.2856 396.9188 24.3791 341.1443 20.5629 319.128 25.2597 294.1762 33.4791 250.4373 65.7696 212.2758 102.7569 203.4693 110.0957 201.708 110.6828 202.2951 110.6828 211.6887 110.6828 219.321 109.215 222.2565 104.8118 223.7242 101.8763 224.6049 95.7117 229.5953 91.602 234.2921L84.2633 243.3921 84.2633 425.0995C84.2633 624.42 83.9697 620.6038 101.2892 626.7684L109.8021 629.7039 111.2699 660.8202C112.4441 685.4784 113.9118 693.1107 118.0215 697.8075 120.957 701.0366 125.0667 703.6785 127.4151 703.6785 130.3506 703.6785 131.2313 709.2559 131.2313 726.869 131.2313 744.482 132.1119 750.3529 135.6345 751.5271 137.9829 752.7014 140.6249 752.4078 141.212 750.94 142.0926 749.7659 142.9733 733.3271 143.2668 714.5398L143.5604 680.1945 153.5411 680.1945C160.5863 680.1945 163.5218 681.6623 163.5218 684.5977 163.5218 686.9461 166.1637 689.001 169.3928 689.001 176.1444 689.001 179.0799 680.1945 177.6122 665.2234 177.0251 657.5911 175.2638 654.9492 170.2734 654.3621 164.9895 653.4814 163.5218 654.9492 163.5218 659.3525 163.5218 664.3428 161.7605 665.517 154.7153 665.517L145.6152 665.517 146.4959 647.6104C147.3765 629.7039 147.3765 629.7039 158.5314 625.8878 184.3638 617.0812 201.3897 593.5973 213.1317 550.1518 225.4608 504.9452 241.019 483.516 272.1353 467.6643 303.2516 452.1062 321.1581 450.3448 428.891 452.1062 532.2206 453.5739 558.053 456.5094 584.4725 468.5449 609.1307 479.6998 619.6985 489.6806 629.9727 510.8162 642.0083 535.1808 645.8244 562.1874 642.0083 592.7166 636.4308 638.2169 614.121 710.1366 592.3983 753.2885L583.2983 771.195 331.4324 771.195C55.4954 771.195 64.5954 770.6079 42.8727 788.5144 37.2953 793.2113 29.0759 803.4855 24.9662 811.4114 16.7468 826.3824 9.408 861.6084 12.3435 871.2956 14.1048 876.873 25.5533 876.873 513.4334 876.873L1012.4684 876.873 1011.5877 853.9761C1009.5329 809.65 987.5166 782.6435 945.539 773.2498 934.9712 770.6079 925.5776 767.966 924.6969 767.3789 924.1098 766.4982 919.413 754.1691 914.7162 739.7851 903.8549 707.4947 892.9935 653.775 888.0032 609.7425 884.187 574.8101 882.7193 444.4739 886.2419 436.2544 887.4161 433.0254 890.9387 432.1447 898.2774 433.0254L908.2581 434.1996 909.7259 455.6288C911.4872 481.4612 918.5324 493.4967 935.5583 498.487L946.7132 502.0096 947.8874 525.2001C948.768 547.2163 949.3551 548.9777 958.4552 557.197 968.7294 566.2971 986.0489 568.6455 997.4973 562.7745 1011.8813 554.8486 1011.8813 553.6744 1011.8813 381.3606 1011.8813 225.4856 1011.5877 219.9081 1006.0103 212.8629 997.2038 201.4144 984.5811 197.3048 971.0778 201.1209 952.5842 206.6984 949.0616 213.1564 947.3003 243.6857 945.8325 270.1052 945.8325 270.3987 937.3196 272.4535 918.5324 277.4439 909.1388 294.7633 909.1388 324.1183L909.1388 339.6765 893.2871 339.6765 877.7289 339.6765 866.2805 320.3022C843.3836 281.2601 803.4608 257.1889 752.9702 252.4922 734.4765 251.0244 733.0088 250.1437 733.0088 243.9792 733.0088 237.2276 734.183 236.934 750.6218 236.934 770.2896 236.934 775.8671 232.2372 767.0606 222.5501 763.2444 218.4404 762.3638 210.8081 762.3638 187.0305 762.3638 163.253 763.2444 155.6207 767.0606 151.511 769.7025 148.5755 771.1703 144.1722 770.2896 141.5303 768.8219 137.7141 761.1896 137.127 724.2023 137.127 681.9311 137.127 680.1698 137.4206 680.1698 142.998ZM747.6863 187.0305L747.6863 222.2565 725.67 222.2565 703.6538 222.2565 703.6538 187.0305 703.6538 151.8045 725.67 151.8045 747.6863 151.8045 747.6863 187.0305ZM552.4755 184.095C554.2368 189.6725 549.8336 201.708 546.0174 201.708 536.6238 201.708 528.698 177.3434 537.2109 174.4079 542.4948 172.6465 550.4207 177.3434 552.4755 184.095ZM131.2313 197.3048C131.2313 214.9178 130.3506 219.321 126.828 219.321 123.3054 219.321 122.4248 215.2113 122.4248 199.3596 122.4248 188.2047 123.3054 178.224 124.4796 177.3434 129.47 172.0594 131.2313 177.0498 131.2313 197.3048ZM684.8666 221.963C682.2246 224.8985 680.1698 229.3017 680.1698 231.9436 680.1698 236.0534 683.3988 236.934 699.2505 236.934 717.4506 236.934 718.3313 237.2276 718.3313 243.9792 718.3313 250.4373 717.1571 250.7308 694.5537 252.7857 661.089 255.4277 622.0469 263.3535 518.7173 288.3053 469.4009 300.0473 419.2038 311.4957 407.1683 313.5505 375.4649 319.128 322.0388 318.2474 298.8483 312.0828 260.9804 301.8085 222.2318 277.7375 195.8123 247.7954 180.5477 231.063 166.1637 222.2565 153.5411 222.2565 146.4959 222.2565 145.9088 221.3759 145.9088 208.7532L145.9088 194.9563 165.8702 196.7177C176.7315 197.5983 214.0124 204.937 248.6513 213.1564 283.2902 221.3759 328.2033 230.7695 348.4583 233.9985 438.8717 248.676 520.4786 243.0985 545.4303 220.4952 549.2465 217.2661 558.6401 215.7984 580.9499 215.2113 607.3694 214.6242 615.0017 212.8629 642.0083 203.4693 659.0342 197.3048 676.0601 190.5531 680.1698 188.4983L687.5085 184.6821 688.3892 200.8274C688.9763 212.2758 688.0956 218.4404 684.8666 221.963ZM990.7457 218.1468L997.2038 222.5501 997.2038 382.2413C997.2038 557.7841 997.7909 551.0325 979.5908 551.0325 961.6842 551.0325 961.9778 553.968 961.9778 381.6542 961.9778 229.0082 962.2713 224.8985 967.8488 219.321 974.894 212.2758 981.9392 211.9823 990.7457 218.1468ZM165.2831 241.6308C174.0896 245.7405 175.8509 248.9696 181.4283 267.4632 199.0413 325.8797 234.5609 367.2702 285.6386 388.1123L301.4903 394.5703 287.6934 399.8543C268.3191 407.193 238.0835 438.3093 226.0479 462.9675 217.8285 479.6998 210.4898 502.3032 194.6381 559.839 188.4735 581.5617 176.7315 598.8811 162.3476 607.1006 147.6701 615.6135 110.9763 617.0812 103.6376 609.7425 99.5279 605.9263 98.9408 581.8553 98.3537 426.5673L97.7666 247.7954 104.5182 242.5114C113.6183 235.1727 150.6056 234.5856 165.2831 241.6308ZM774.9864 271.8664C824.3028 284.4891 848.0804 305.9182 865.6934 353.1798 871.5644 368.7379 872.1515 374.609 870.9773 414.5318 868.3353 510.8162 869.8031 584.2036 875.087 622.9523 881.5451 671.6816 889.4709 711.6044 898.571 739.198 902.3871 751.2336 905.3226 761.2143 905.0291 761.5078 904.442 762.0949 894.7548 759.1594 883.3064 755.3433 833.1093 738.0239 781.151 704.8527 760.3089 676.6719 754.4379 668.4525 746.8056 653.775 743.283 643.7943 735.9443 622.0716 727.1378 617.3748 727.1378 635.2813 727.4313 660.5267 751.5024 695.4591 786.4349 721.585 807.864 737.4368 863.0514 767.3789 873.9128 768.8466 876.2612 769.4337 840.1545 770.3143 793.1865 771.195 710.4054 772.6627 708.057 772.9563 708.057 778.5338 708.057 784.4047 710.4054 784.4047 821.0738 785.8725L934.0905 787.3402 913.542 796.4403C885.6548 809.063 848.6675 820.5114 823.1286 824.3275 796.7091 828.4372 757.0799 826.0889 736.5314 819.3372 693.086 804.9533 672.5375 761.2143 684.573 708.3753 692.4989 672.5622 711.5796 638.5104 758.5476 576.2778 802.8737 517.5678 823.7157 481.4612 829.5867 451.8126 839.5674 402.7897 822.8351 354.9411 787.022 331.4571 767.0606 318.2474 753.5573 315.0183 718.3313 315.0183 681.0504 315.3119 647.8793 322.0635 530.4593 352.8863 429.1845 379.3057 400.7102 384.5897 358.7325 384.8832 333.1937 384.8832 322.0388 383.709 305.8935 378.7187 261.5675 364.6282 226.9286 335.8603 208.7285 297.4053 203.151 286.2504 199.3349 276.2697 200.2155 275.6826 200.8026 275.0955 207.5543 279.7923 215.4801 286.5439 232.2125 301.515 269.4933 320.3022 295.6193 327.0539 308.829 330.5765 326.442 332.0442 352.8615 332.0442 398.3618 332.0442 420.6716 327.9345 548.0723 297.1118 659.6213 270.1052 674.2988 267.4632 723.0281 266.5826 743.8701 266.289 759.1347 268.0503 774.9864 271.8664ZM947.3003 386.6445C947.3003 447.4093 946.1261 486.4515 944.6583 486.4515 942.897 486.4515 937.9067 483.2224 933.5034 479.4063L925.284 472.3611 925.284 385.7639C925.284 304.7441 925.5776 298.873 930.8615 293.0021 934.0905 289.4795 938.7873 286.8375 942.0164 286.8375 947.0067 286.8375 947.3003 291.5343 947.3003 386.6445ZM763.8315 335.5668C784.38 342.612 804.635 363.7476 810.506 384.0025 816.6705 404.8446 816.377 411.8898 808.1576 429.7964 786.7284 475.2966 719.5055 472.0675 713.3409 425.0995 710.1119 400.7349 730.0733 384.5897 752.0895 393.6897 764.1251 398.9736 768.2348 397.7994 768.2348 389.58 768.2348 381.0671 752.3831 374.0219 736.8249 375.7831 720.0926 377.5445 710.1119 384.5897 703.3602 399.2672 681.6375 447.7029 735.0636 494.6709 785.8478 471.4805 793.1865 468.2514 802.8737 462.0868 807.5705 457.6836L815.7899 449.7577 813.735 457.0965C807.2769 479.4063 787.3155 512.871 751.2089 560.7197 701.8925 626.4749 686.3343 652.0137 675.7665 684.5977 667.2536 710.4301 664.6116 741.5465 669.0149 761.5078L671.3633 771.195 636.1373 771.195 600.9113 771.195 607.9565 757.1046C627.9179 717.7689 651.4019 638.8039 656.6858 593.3037 661.6761 552.5003 653.1632 511.9904 634.6695 487.6257 625.2759 475.2966 627.3308 475.0031 645.2373 486.4515 673.1246 504.6516 696.0215 535.1808 705.1215 566.2971 709.8183 582.7359 717.1571 590.0747 720.0926 581.8553 726.2571 566.2971 702.186 517.8613 676.0601 492.6161 646.7051 464.7288 611.1855 450.3448 549.54 442.1255 511.3785 437.1351 340.5324 435.0802 313.8194 439.4835 287.6934 443.5932 265.0901 451.5191 250.4126 461.4997 244.5416 465.3159 239.8448 467.9579 239.8448 467.0772 239.8448 462.9675 258.3384 439.4835 268.0256 430.677 274.1901 425.3931 287.6934 416.8801 298.2612 412.1834 315.2871 404.2575 321.1581 403.0833 358.439 401.0285 408.9296 398.0929 440.633 392.222 533.3948 367.8573 598.8564 350.5378 648.4664 338.7958 687.5085 331.1635 707.7635 327.0539 746.2185 329.4023 763.8315 335.5668ZM909.1388 385.1768L909.1388 415.9995 899.1581 415.9995 889.4709 415.9995 887.7096 391.6348C886.5354 378.4251 885.0677 364.6282 883.8935 360.8121 882.1322 354.6475 883.0128 354.354 895.6355 354.354L909.1388 354.354 909.1388 385.1768ZM131.2313 659.646C131.2313 677.259 130.0571 689.001 128.2958 689.001 126.5345 689.001 125.3603 677.259 125.3603 659.646 125.3603 642.033 126.5345 630.291 128.2958 630.291 130.0571 630.291 131.2313 642.033 131.2313 659.646ZM558.3465 796.4403C541.6142 811.1178 503.4527 829.0243 477.0332 834.3083 443.2749 841.0599 397.7747 839.8857 352.8615 831.3727 223.9931 806.7145 162.3476 800.2565 114.2054 806.1274 83.0891 809.9436 60.7793 817.5759 43.4598 829.905 29.9565 839.8857 28.7823 837.8309 37.2953 821.392 44.3405 807.3016 57.8438 794.3854 70.1729 789.6887 77.2181 787.3402 144.1475 786.1661 324.9743 786.1661L570.0885 786.1661 558.3465 796.4403ZM684.2795 798.7887C693.086 814.0533 713.3409 828.1437 735.9443 835.1889 757.9605 841.9406 817.5512 841.9406 846.6126 834.8954 875.087 828.1437 906.2033 816.6952 933.5034 803.1919 955.2261 792.037 956.6939 791.7435 964.6197 796.1467 982.8198 805.2468 997.2038 830.7857 997.2038 853.0955L997.2038 862.1955 514.314 862.1955C47.8631 862.1955 31.4243 861.9019 34.0662 856.9116 38.1759 849.2793 57.5502 836.3631 74.5761 829.905 121.8377 811.9985 192.2897 815.2275 319.1033 840.4728 368.4197 850.4535 378.1068 851.3341 423.3135 851.6277 467.9331 851.9212 475.5654 851.0406 495.2333 845.1696 526.9367 835.1889 559.8143 816.9888 576.2531 800.55L590.637 786.4596 633.7889 786.1661 676.6472 785.8725 684.2795 798.7887Z"/>
<path transform="translate(0,0)" style="fill: rgb(0,0,0)" stroke-linecap="round" d="M384.6 433.6C384.3 434.5 384 446.3 384 459.9 384 479.1 384.3 485 385.3 486.5 388.5 490.8 389 487.4 389 459.4 389 433.2 388.9 432 387.1 432 386.1 432 384.9 432.7 384.6 433.6Z"/>
<path transform="translate(0,0)" style="fill: rgb(0,0,0)" stroke-linecap="round" d="M387.3 495.6C384.2 497.1 381 502.1 381 505.4 381 511.3 386.7 517 392.5 517 404.4 517 408.3 499.9 397.5 495.4 393.2 493.6 391.3 493.7 387.3 495.6ZM396.7 501.2C399.5 503.8 399.7 507.3 397 510 394.4 512.6 391.9 512.5 388.6 509.9 385.3 507.3 385.3 504.6 388.5 501.5 391.5 498.4 393.7 498.4 396.7 501.2Z"/>
</svg>