<?xml version="1.0" standalone="no"?>
<!DOCTYPE svg PUBLIC "-//W3C//DTD SVG 20010904//EN"
 "http://www.w3.org/TR/2001/REC-SVG-20010904/DTD/svg10.dtd">
<svg version="1.0" xmlns="http://www.w3.org/2000/svg"
 width="1024.000000pt" height="1024.000000pt" viewBox="0 0 1024.000000 1024.000000"
 preserveAspectRatio="xMidYMid meet">

<g transform="translate(0.000000,1024.000000) scale(0.100000,-0.100000)"
fill="#000000" stroke="none">
<path d="M5720 6410 c0 -11 7 -23 15 -26 9 -4 15 -19 15 -40 0 -33 -3 -36 -67
-65 -116 -52 -215 -81 -297 -87 l-78 -5 6 39 c9 50 -6 91 -38 105 -36 17 -72
4 -86 -30 -14 -35 -6 -67 27 -102 20 -21 21 -28 10 -37 -53 -44 -242 -66 -440
-52 -166 13 -302 37 -537 96 -105 26 -221 48 -267 51 l-82 6 -3 36 -3 36 -57
3 c-54 3 -58 1 -63 -21 -4 -14 -5 -35 -3 -47 2 -19 -4 -26 -42 -38 -176 -58
-291 -242 -277 -442 4 -53 22 -127 61 -250 82 -254 88 -332 36 -475 -12 -33
-33 -91 -47 -130 -20 -55 -26 -90 -27 -160 -1 -83 2 -96 32 -157 41 -83 120
-158 197 -187 31 -12 62 -21 70 -21 27 0 26 20 -2 32 -104 43 -136 61 -171 98
-76 77 -108 183 -91 293 6 32 27 105 49 162 78 204 76 270 -13 550 -61 190
-74 265 -58 350 28 149 138 279 264 309 25 6 27 4 27 -28 0 -26 -5 -36 -20
-41 -10 -3 -31 -20 -45 -36 l-25 -31 0 -619 c0 -679 -1 -666 58 -687 l29 -10
5 -106 c4 -84 9 -110 23 -126 10 -11 24 -20 32 -20 10 0 13 -19 13 -79 0 -60
3 -80 15 -84 8 -4 17 -3 19 2 3 4 6 60 7 124 l1 117 34 0 c24 0 34 -5 34 -15
0 -8 9 -15 20 -15 23 0 33 30 28 81 -2 26 -8 35 -25 37 -18 3 -23 -2 -23 -17
0 -17 -6 -21 -30 -21 l-31 0 3 61 c3 61 3 61 41 74 88 30 146 110 186 258 42
154 95 227 201 281 106 53 167 59 534 53 352 -5 440 -15 530 -56 84 -38 120
-72 155 -144 41 -83 54 -175 41 -279 -19 -155 -95 -400 -169 -547 l-31 -61
-858 0 c-940 0 -909 2 -983 -59 -19 -16 -47 -51 -61 -78 -28 -51 -53 -171 -43
-204 6 -19 45 -19 1707 -19 l1700 0 -3 78 c-7 151 -82 243 -225 275 -36 9 -68
18 -71 20 -2 3 -18 45 -34 94 -37 110 -74 293 -91 443 -13 119 -18 563 -6 591
4 11 16 14 41 11 l34 -4 5 -73 c6 -88 30 -129 88 -146 l38 -12 4 -79 c3 -75 5
-81 36 -109 35 -31 94 -39 133 -19 49 27 49 31 49 618 0 531 -1 550 -20 574
-30 39 -73 53 -119 40 -63 -19 -75 -41 -81 -145 -5 -90 -5 -91 -34 -98 -64
-17 -96 -76 -96 -176 l0 -53 -54 0 -53 0 -39 66 c-78 133 -214 215 -386 231
-63 5 -68 8 -68 29 0 23 4 24 60 24 67 0 86 16 56 49 -13 14 -16 40 -16 121 0
81 3 107 16 121 9 10 14 25 11 34 -5 13 -31 15 -157 15 -144 0 -150 -1 -150
-20z m230 -150 l0 -120 -75 0 -75 0 0 120 0 120 75 0 75 0 0 -120z m-665 10
c6 -19 -9 -60 -22 -60 -32 0 -59 83 -30 93 18 6 45 -10 52 -33z m-1435 -45 c0
-60 -3 -75 -15 -75 -12 0 -15 14 -15 68 0 38 3 72 7 75 17 18 23 1 23 -68z
m1886 -84 c-9 -10 -16 -25 -16 -34 0 -14 11 -17 65 -17 62 0 65 -1 65 -24 0
-22 -4 -23 -81 -30 -114 -9 -247 -36 -599 -121 -168 -40 -339 -79 -380 -86
-108 -19 -290 -16 -369 5 -129 35 -261 117 -351 219 -52 57 -101 87 -144 87
-24 0 -26 3 -26 46 l0 47 68 -6 c37 -3 164 -28 282 -56 118 -28 271 -60 340
-71 308 -50 586 -31 671 46 13 11 45 16 121 18 90 2 116 8 208 40 58 21 116
44 130 51 l25 13 3 -55 c2 -39 -1 -60 -12 -72z m1042 13 l22 -15 0 -544 c0
-598 2 -575 -60 -575 -61 0 -60 -10 -60 577 0 520 1 534 20 553 24 24 48 25
78 4z m-2812 -80 c30 -14 36 -25 55 -88 60 -199 181 -340 355 -411 l54 -22
-47 -18 c-66 -25 -169 -131 -210 -215 -28 -57 -53 -134 -107 -330 -21 -74 -61
-133 -110 -161 -50 -29 -175 -34 -200 -9 -14 13 -16 95 -18 624 l-2 609 23 18
c31 25 157 27 207 3z m2077 -103 c168 -43 249 -116 309 -277 20 -53 22 -73 18
-209 -9 -328 -4 -578 14 -710 22 -166 49 -302 80 -396 13 -41 23 -75 22 -76
-2 -2 -35 8 -74 21 -171 59 -348 172 -419 268 -20 28 -46 78 -58 112 -25 74
-55 90 -55 29 1 -86 83 -205 202 -294 73 -54 261 -156 298 -161 8 -2 -115 -5
-275 -8 -282 -5 -290 -6 -290 -25 0 -20 8 -20 385 -25 l385 -5 -70 -31 c-95
-43 -221 -82 -308 -95 -90 -14 -225 -6 -295 17 -148 49 -218 198 -177 378 27
122 92 238 252 450 151 200 222 323 242 424 34 167 -23 330 -145 410 -68 45
-114 56 -234 56 -127 -1 -240 -24 -640 -129 -345 -90 -442 -108 -585 -109 -87
0 -125 4 -180 21 -151 48 -269 146 -331 277 -19 38 -32 72 -29 74 2 2 25 -14
52 -37 57 -51 184 -115 273 -138 45 -12 105 -17 195 -17 155 0 231 14 665 119
380 92 430 101 596 104 71 1 123 -5 177 -18z m587 -391 c0 -207 -4 -340 -9
-340 -6 0 -23 11 -38 24 l-28 24 0 295 c0 276 1 296 19 316 11 12 27 21 38 21
17 0 18 -16 18 -340z m-625 174 c70 -24 139 -96 159 -165 21 -71 20 -95 -8
-156 -73 -155 -302 -144 -323 16 -11 83 57 138 132 107 41 -18 55 -14 55 14 0
29 -54 53 -107 47 -57 -6 -91 -30 -114 -80 -74 -165 108 -325 281 -246 25 11
58 32 74 47 l28 27 -7 -25 c-22 -76 -90 -190 -213 -353 -168 -224 -221 -311
-257 -422 -29 -88 -38 -194 -23 -262 l8 -33 -120 0 -120 0 24 48 c68 134 148
403 166 558 17 139 -12 277 -75 360 -32 42 -25 43 36 4 95 -62 173 -166 204
-272 16 -56 41 -81 51 -53 21 53 -61 218 -150 304 -100 95 -221 144 -431 172
-130 17 -712 24 -803 9 -89 -14 -166 -41 -216 -75 -20 -13 -36 -22 -36 -19 0
14 63 94 96 124 21 18 67 47 103 63 58 27 78 31 205 38 172 10 280 30 596 113
223 59 392 99 525 125 69 14 200 6 260 -15z m495 -169 l0 -105 -34 0 -33 0 -6
83 c-4 45 -9 92 -13 105 -6 21 -3 22 40 22 l46 0 0 -105z m-2650 -935 c0 -60
-4 -100 -10 -100 -6 0 -10 40 -10 100 0 60 4 100 10 100 6 0 10 -40 10 -100z
m1455 -466 c-57 -50 -187 -111 -277 -129 -115 -23 -270 -19 -423 10 -439 84
-649 106 -813 86 -106 -13 -182 -39 -241 -81 -46 -34 -50 -27 -21 29 24 48 70
92 112 108 24 8 252 12 868 12 l835 0 -40 -35z m429 -8 c30 -52 99 -100 176
-124 75 -23 278 -23 377 1 97 23 203 62 296 108 74 38 79 39 106 24 62 -31
111 -118 111 -194 l0 -31 -1645 0 c-1589 0 -1645 1 -1636 18 14 26 80 70 138
92 161 61 401 50 833 -36 168 -34 201 -37 355 -38 152 -1 178 2 245 22 108 34
220 96 276 152 l49 48 147 1 146 1 26 -44z"/>
<path d="M3846 5904 c-3 -9 -6 -127 -6 -263 0 -192 3 -251 13 -266 32 -43 37
-9 37 271 0 262 -1 274 -19 274 -10 0 -22 -7 -25 -16z"/>
<path d="M3873 5284 c-31 -15 -63 -65 -63 -98 0 -59 57 -116 115 -116 119 0
158 171 50 216 -43 18 -62 17 -102 -2z m94 -56 c28 -26 30 -61 3 -88 -26 -26
-51 -25 -84 1 -33 26 -33 53 -1 84 30 31 52 31 82 3z"/>
</g>
</svg>
